# xmcd
#
# Track frame offsets: 
#        150
#        18452
#        37033
#        55336
#
# Disc length: 983 seconds
#
# Revision: 5
# Processed by: cddbd v1.5.2PL0 Copyright (c) Steve Scherf et al.
# Submitted via: ExactAudioCopyFreeDBPlugin 1.0
#
DISCID=2f03d504
DTITLE=RIDER CHIPS - FULL FORCE
DYEAR=2006
DGENRE=JPop
TTITLE0=FULL FORCE
TTITLE1=FULL FORCE Instrumental with chorus
TTITLE2=Bang! Bang! Revolution
TTITLE3=Bang! Bang! Revolution Instrumental with chorus
EXTD=YEAR: 2006
EXTT0=
EXTT1=
EXTT2=
EXTT3=
PLAYORDER=
